<svg xmlns="http://www.w3.org/2000/svg" id="Layer_2" viewBox="0 0 258.96 84.73"><defs><style>.cls-1{fill:none;}</style></defs><g id="Layer_1-2"><path class="cls-1" d="M140.69,18.83l2.84-12.88c-2.29-.71-6.73-1.86-11.49-1.95-4.78-.13-9.24.97-11.54,1.63l2.68,13.26c2.77-.99,5.74-1.53,8.84-1.53s5.94.52,8.66,1.47Z"></path><path class="cls-1" d="M122.82,68.44l-2.28,10.24c2.29.71,6.72,1.86,11.5,1.86s9.23-1.06,11.53-1.72l-2.09-10.46c-2.93,1.13-6.11,1.75-9.43,1.75s-6.35-.59-9.22-1.67Z"></path><path class="cls-1" d="M106.5,50.32l-13.05,5.99c.82,2.25,2.58,6.48,5.48,10.28,2.88,3.79,6.42,6.7,8.34,8.13l8.83-10c-4.66-3.54-8.1-8.59-9.61-14.41Z"></path><path class="cls-1" d="M115.13,23.52l-9.11-8.94c-1.81,1.57-5.14,4.72-7.75,8.71-2.61,4-4.08,8.35-4.73,10.65l12.61,4.74c1.18-6.04,4.43-11.34,8.97-15.15Z"></path><path class="cls-1" d="M159.18,13.85l-10,9.88c4.37,3.75,7.5,8.89,8.7,14.74l13.65-5.17c-.67-2.3-2.13-6.65-4.66-10.68-2.54-4.05-5.87-7.2-7.68-8.76Z"></path><path class="cls-1" d="M149.43,63.54l9.44,9.43c1.83-1.55,5.19-4.67,7.82-8.64,2.65-3.98,4.15-8.31,4.83-10.6l-13.55-5.23c-1.09,5.95-4.18,11.2-8.54,15.04Z"></path><path d="M35.65,36.23c-11.91-2.71-22.2-5.06-22.85-12.17-.23-2.46.37-4.49,1.78-6.05,2-2.2,5.81-3.52,10.19-3.52h42.73V2.74H24.9c-8.63,0-15.23,2.33-19.6,6.91C.16,15.05-.1,21.71.02,24.33c.73,16.33,18.37,20.71,33.94,24.57,12.47,3.1,24.26,6.02,24.74,14.48h0c.15,2.57-.51,4.65-1.95,6.18-2.8,2.97-8.04,3.42-10.92,3.42H1.3v11.76h45.3c8.43,0,14.91-2.24,19.25-6.64,5.03-5.11,5.69-11.54,5.63-14.93-.46-18.88-19.25-23.16-35.84-26.94Z"></path><polygon points="207.34 72.98 207.34 2.74 195.07 2.74 195.07 84.73 258.96 84.73 258.96 72.98 207.34 72.98"></polygon><path d="M174.86,34.1c-.06-.29-1.58-7.19-5.61-13.62-4.07-6.5-9.77-10.75-10.01-10.93l-1.38-1.02-12.95,12.79c-.49-.3-.98-.59-1.49-.86l3.77-17.08-1.61-.62c-.28-.11-6.88-2.61-14.47-2.76-7.65-.12-14.35,2.29-14.63,2.39l-1.6.59,3.55,17.57c-.34.19-.68.38-1.01.58l-12.12-11.89-1.38,1.04c-.24.18-5.86,4.45-10.01,10.8-4.19,6.42-5.66,13.38-5.72,13.67l-.35,1.67,16.83,6.32c-.01.32-.02.65-.02.97,0,.85.04,1.68.12,2.51l-17.19,7.89.46,1.65c.08.29,2.04,7.12,6.68,13.23,4.59,6.04,10.5,9.9,10.75,10.06l1.45.94,10.97-12.41-3.04,13.63,1.59.63c.28.11,6.91,2.68,14.58,2.68s14.24-2.37,14.52-2.47l1.62-.58-2.98-14.91c.34-.2.68-.4,1.01-.61l12.33,12.32,1.38-1.02c.24-.18,5.9-4.4,10.11-10.71,4.25-6.38,5.78-13.33,5.84-13.62l.36-1.67-17.83-6.88c0-.21.02-.42.02-.64,0-.4-.01-.79-.03-1.19l17.85-6.76-.36-1.68ZM110.66,43.74c0-11.23,9.14-20.37,20.37-20.37s20.37,9.14,20.37,20.37-9.14,20.37-20.37,20.37-20.37-9.14-20.37-20.37ZM119.51,5.64c2.3-.67,6.76-1.76,11.54-1.63,4.76.09,9.2,1.25,11.49,1.95l-2.84,12.88c-2.71-.95-5.62-1.47-8.66-1.47s-6.08.54-8.84,1.53l-2.68-13.26ZM92.55,33.93c.65-2.3,2.12-6.64,4.73-10.65,2.6-3.99,5.93-7.14,7.75-8.71l9.11,8.94c-4.55,3.81-7.79,9.11-8.97,15.15l-12.61-4.74ZM106.27,74.73c-1.92-1.44-5.47-4.34-8.34-8.13-2.89-3.81-4.66-8.04-5.48-10.28l13.05-5.99c1.5,5.82,4.95,10.87,9.61,14.41l-8.83,10ZM142.56,78.82c-2.3.66-6.75,1.72-11.53,1.72s-9.22-1.15-11.5-1.86l2.28-10.24c2.87,1.07,5.98,1.67,9.22,1.67s6.5-.62,9.43-1.75l2.09,10.46ZM170.51,53.72c-.68,2.29-2.18,6.62-4.83,10.6-2.64,3.96-6,7.08-7.82,8.64l-9.44-9.43c4.36-3.84,7.45-9.09,8.54-15.04l13.55,5.23ZM156.87,38.46c-1.19-5.85-4.33-10.99-8.7-14.74l10-9.88c1.81,1.56,5.14,4.71,7.68,8.76,2.53,4.03,3.99,8.38,4.66,10.68l-13.65,5.17Z"></path></g></svg>