<?xml version="1.0" encoding="UTF-8"?><svg id="Layer_2" xmlns="http://www.w3.org/2000/svg" viewBox="0 0 258.96 118.9"><defs><style>.cls-1{fill:none;}</style></defs><g id="Layer_1-2"><path d="M16.78,107.78c-.3-5.31-15.11-2.74-15.45-10.27-.1-2.13,1.12-5.41,6.29-5.41h10.95v2.57H7.59c-1.62,0-3.62.68-3.41,2.81.44,4.8,15.24,1.93,15.45,10.27.03,2.13-1.12,5.41-6.29,5.41H1.68v-2.57h11.46c1.66,0,3.79-.51,3.65-2.81Z"/><path d="M28.78,97.61c4.33-.1,7.88,3.51,7.88,7.88s-3.55,7.98-7.88,7.91c-1.96-.03-3.72-.88-5.07-2.16v7.67h-2.74v-21.06h2.74v1.89c1.39-1.25,3.18-2.09,5.07-2.13ZM28.78,110.55c2.77,0,5.07-2.26,5.07-5.07s-2.3-5.07-5.07-5.07-5.07,2.3-5.07,5.07,2.26,5.07,5.07,5.07Z"/><path d="M45.03,97.84c4.8,0,6.73,1.83,6.73,6.19v9.12h-2.7v-1.89c-.81.88-1.76,1.96-4.33,2.13-3.72.27-6.62-1.32-6.73-4.66-.1-3.28,2.4-5.34,6.69-5.34h4.33c0-2.47-1.69-2.97-3.85-2.97h-5.14v-2.57h5ZM44.69,105.92c-2.43,0-3.79.95-3.82,2.43-.07,1.96,1.76,2.74,4.02,2.37,2.57-.37,4.16-2.97,4.16-2.97v-1.83h-4.36Z"/><path d="M69.83,110.42s-4.73,3.11-8.86,3.01c-4.33-.13-7.88-3.55-7.88-7.91s3.51-7.88,7.88-7.88c2.94,0,5.48,1.55,6.86,3.92l-2.4,1.55c-.85-1.59-2.54-2.67-4.46-2.67-2.77,0-5.07,2.26-5.07,5.07s1.93,4.93,5.21,5.21c2.87.27,6.42-1.76,10.04-3.72,4.5-2.4,8.55-5,8.55-5-.91-.95-2.23-1.55-3.65-1.55-2.81,0-5.07,2.26-5.07,5.07,0,.13,0,.37.03.54l-2.64,1.32c-.07-.2-.1-.47-.14-.61-.07-.41-.1-.81-.1-1.25,0-4.36,3.55-7.88,7.91-7.88,1.93,0,3.65.71,5.04,1.89,1.62,1.39,2.43,3.24,2.43,3.24l-11.09,6.32c.91.91,2.2,1.49,3.62,1.49,1.93,0,3.58-1.08,4.43-2.64l2.4,1.52c-1.39,2.37-3.92,3.95-6.83,3.95-2.54,0-4.77-1.18-6.22-3.01Z"/><path d="M94.67,109.27c0-3.31-10.21-1.25-10.48-7.47-.07-1.55.81-3.96,4.56-3.96h7.98v2.57h-7.06c-1.18,0-2.64.13-2.64,1.35-.03,3.01,10.31,1.39,10.44,7.47.03,1.55-.78,3.92-4.56,3.92h-8.48v-2.53h7.57c1.18,0,2.67-.17,2.67-1.35Z"/><path d="M115.69,97.64c4.36,0,7.91,3.51,7.91,7.88s-3.55,7.91-7.91,7.91-7.88-3.55-7.88-7.91,3.51-7.88,7.88-7.88ZM115.69,100.45c-2.77,0-5.07,2.26-5.07,5.07s2.3,5.07,5.07,5.07,5.07-2.26,5.07-5.07-2.26-5.07-5.07-5.07Z"/><path d="M125.72,100.41h-2.13v-2.57h2.13c0-4.36,2.6-5.75,6.02-5.75h1.01v2.57h-1.15c-2.16,0-3.11.74-3.11,3.18h4.26v2.57h-4.29l-.03,12.74h-2.7v-12.74Z"/><path d="M145.79,110.59h13.59v2.57h-16.29v-21.06h2.7v18.49Z"/><path d="M164.34,109.1c.91.91,2.2,1.49,3.58,1.49,1.93,0,3.62-1.08,4.46-2.64l2.4,1.52c-1.39,2.37-3.92,3.95-6.86,3.95-4.36,0-7.88-3.55-7.88-7.91s3.51-7.88,7.88-7.88c1.96,0,3.68.71,5.04,1.89,1.66,1.39,2.47,3.24,2.47,3.24l-11.09,6.32ZM171.61,102c-.95-.95-2.23-1.55-3.68-1.55-2.77,0-5.07,2.26-5.07,5.07,0,.47.07.95.2,1.35l8.55-4.87Z"/><path d="M201.35,101.49c-.44-.88-1.22-1.39-2.47-1.32-1.66.1-2.64,1.25-4.93,4.02-1.05,1.28-2.5,3.04-4.06,4.73v4.22h-2.7v-1.89c-.1.1-2.3,2.23-5.34,2.16-3.21-.1-5.64-1.66-5.71-4.7-.1-3.28,2.4-5.34,6.69-5.34h4.33c0-2.47-1.69-2.97-3.85-2.97h-5.14v-2.54h5c4.5,0,6.49,1.59,6.69,5.37v.51l-2.67,3.04v-.88h-4.36c-2.43,0-3.79.98-3.82,2.43-.07,1.52,1.01,2.3,2.57,2.43,1.83.2,3.92-1.08,5.61-2.81,2.3-2.37,4.46-5.24,4.63-5.41v-4.7h2.7v1.89c1.05-1.08,2.16-2.03,4.09-2.13,1.99-.14,3.48.44,4.5,1.55l-1.76,2.3ZM194.62,104.64l-.1,8.55h-2.7v-5.1l2.8-3.45Z"/><path d="M204.45,113.15v-15.31h2.74v1.93c1.35-1.28,3.11-2.1,5.07-2.16,4.93-.17,7.33,3.55,7.33,7.91v7.64h-2.74v-7.64c0-2.81-1.22-5.44-4.6-5.34-3.35.1-5.07,2.81-5.07,4.26l-.03,8.72h-2.7Z"/><path d="M224.76,94.87c0,.95-.78,1.72-1.76,1.72s-1.72-.78-1.72-1.72.78-1.76,1.72-1.76,1.76.78,1.76,1.76ZM221.65,113.15h2.7v-15.31h-2.7v15.31Z"/><path d="M226.45,113.15v-15.31h2.74v1.93c1.35-1.28,3.11-2.1,5.07-2.16,4.93-.17,7.33,3.55,7.33,7.91v7.64h-2.74v-7.64c0-2.81-1.22-5.44-4.6-5.34-3.35.1-5.07,2.81-5.07,4.26l-.03,8.72h-2.7Z"/><path d="M255.88,111.26c-1.38,1.28-3.14,2.13-5.04,2.13-4.36.07-7.91-3.52-7.91-7.88s3.55-7.98,7.91-7.91c1.86.03,3.65.91,5.04,2.16v-1.93h2.74v14.87c0,4.36-1.93,6.19-6.73,6.19h-6.52v-2.54h6.66c2.16,0,3.85-.51,3.85-2.97v-2.13ZM255.88,105.42c-.03-2.77-2.3-4.97-5.04-4.97s-5.07,2.26-5.07,5.07,2.26,5.07,5.07,5.07,4.97-2.2,5.04-4.93v-.24Z"/><path class="cls-1" d="M140.69,17.37l2.84-12.88c-2.29-.71-6.73-1.86-11.49-1.95-4.78-.13-9.24.97-11.54,1.63l2.68,13.26c2.77-.99,5.74-1.53,8.84-1.53s5.94.52,8.66,1.47Z"/><path class="cls-1" d="M122.82,66.98l-2.28,10.24c2.29.71,6.72,1.86,11.5,1.86s9.23-1.06,11.53-1.72l-2.09-10.46c-2.93,1.13-6.11,1.75-9.43,1.75s-6.35-.59-9.22-1.67Z"/><path class="cls-1" d="M106.5,48.86l-13.05,5.99c.82,2.25,2.58,6.48,5.48,10.28,2.88,3.79,6.42,6.7,8.34,8.13l8.83-10c-4.66-3.54-8.1-8.59-9.61-14.41Z"/><path class="cls-1" d="M115.13,22.05l-9.11-8.94c-1.81,1.57-5.14,4.72-7.75,8.71-2.61,4-4.08,8.35-4.73,10.65l12.61,4.74c1.18-6.04,4.43-11.34,8.97-15.15Z"/><path class="cls-1" d="M159.18,12.38l-10,9.88c4.37,3.75,7.5,8.89,8.7,14.74l13.65-5.17c-.67-2.3-2.13-6.65-4.66-10.68-2.54-4.05-5.87-7.2-7.68-8.76Z"/><path class="cls-1" d="M149.43,62.07l9.44,9.43c1.83-1.55,5.19-4.67,7.82-8.64,2.65-3.98,4.15-8.31,4.83-10.6l-13.55-5.23c-1.09,5.95-4.18,11.2-8.54,15.04Z"/><path d="M35.65,34.76c-11.91-2.71-22.2-5.06-22.85-12.17-.23-2.46.37-4.49,1.78-6.05,2-2.2,5.81-3.52,10.19-3.52h42.73V1.27H24.9c-8.63,0-15.23,2.33-19.6,6.91C.16,13.58-.1,20.25.02,22.86c.73,16.33,18.37,20.71,33.94,24.57,12.47,3.1,24.26,6.02,24.74,14.48h0c.15,2.57-.51,4.65-1.95,6.18-2.8,2.97-8.04,3.42-10.92,3.42H1.3v11.76h45.3c8.43,0,14.91-2.24,19.25-6.64,5.03-5.11,5.69-11.54,5.63-14.93-.46-18.88-19.25-23.16-35.84-26.94Z"/><polygon points="207.34 71.51 207.34 1.27 195.07 1.27 195.07 83.27 258.96 83.27 258.96 71.51 207.34 71.51"/><path d="M178.14,34.1c-.06-.29-1.58-7.19-5.61-13.62-4.07-6.5-9.77-10.75-10.01-10.93l-1.38-1.02-12.95,12.79c-.49-.3-.98-.59-1.49-.86l3.77-17.08-1.61-.62c-.28-.11-6.88-2.61-14.47-2.76-7.65-.12-14.35,2.29-14.63,2.39l-1.6.59,3.55,17.57c-.34.19-.68.38-1.01.58l-12.12-11.89-1.38,1.04c-.24.18-5.86,4.45-10.01,10.8-4.19,6.42-5.66,13.38-5.72,13.67l-.35,1.67,16.83,6.32c-.01.32-.02.65-.02.97,0,.85.04,1.68.12,2.51l-17.19,7.89.46,1.65c.08.29,2.04,7.12,6.68,13.23,4.59,6.04,10.5,9.9,10.75,10.06l1.45.94,10.97-12.41-3.04,13.63,1.59.63c.28.11,6.91,2.68,14.58,2.68s14.24-2.37,14.52-2.47l1.62-.58-2.98-14.91c.34-.2.68-.4,1.01-.61l12.33,12.32,1.38-1.02c.24-.18,5.9-4.4,10.11-10.71,4.25-6.38,5.78-13.33,5.84-13.62l.36-1.67-17.83-6.88c0-.21.02-.42.02-.64,0-.4-.01-.79-.03-1.19l17.85-6.76-.36-1.68ZM113.94,43.74c0-11.23,9.14-20.37,20.37-20.37s20.37,9.14,20.37,20.37-9.14,20.37-20.37,20.37-20.37-9.14-20.37-20.37ZM122.78,5.64c2.3-.67,6.76-1.76,11.54-1.63,4.76.09,9.2,1.25,11.49,1.95l-2.84,12.88c-2.71-.95-5.62-1.47-8.66-1.47s-6.08.54-8.84,1.53l-2.68-13.26ZM95.82,33.93c.65-2.3,2.12-6.64,4.73-10.65,2.6-3.99,5.93-7.14,7.75-8.71l9.11,8.94c-4.55,3.81-7.79,9.11-8.97,15.15l-12.61-4.74ZM109.54,74.73c-1.92-1.44-5.47-4.34-8.34-8.13-2.89-3.81-4.66-8.04-5.48-10.28l13.05-5.99c1.5,5.82,4.95,10.87,9.61,14.41l-8.83,10ZM145.84,78.82c-2.3.66-6.75,1.72-11.53,1.72s-9.22-1.15-11.5-1.86l2.28-10.24c2.87,1.07,5.98,1.67,9.22,1.67s6.5-.62,9.43-1.75l2.09,10.46ZM173.79,53.72c-.68,2.29-2.18,6.62-4.83,10.6-2.64,3.96-6,7.08-7.82,8.64l-9.44-9.43c4.36-3.84,7.45-9.09,8.54-15.04l13.55,5.23ZM160.15,38.46c-1.19-5.85-4.33-10.99-8.7-14.74l10-9.88c1.81,1.56,5.14,4.71,7.68,8.76,2.53,4.03,3.99,8.38,4.66,10.68l-13.65,5.17Z"/></g></svg>