<svg xmlns="http://www.w3.org/2000/svg" id="Layer_2" viewBox="0 0 199.88 46.53"><g id="Layer_1-2"><path d="M15.51,17.77C15.2,12.46.4,15.03.06,7.49-.04,5.36,1.18,2.09,6.35,2.09h10.95v2.57H6.31c-1.62,0-3.62.68-3.41,2.81.44,4.8,15.24,1.93,15.45,10.27.03,2.13-1.12,5.41-6.29,5.41H.4v-2.57h11.46c1.66,0,3.79-.51,3.65-2.81Z"></path><path d="M37.94,8.95c0,4.77-3.55,7.03-6.46,7.03h-9.09v7.17h-2.7V2.09h11.96c3.58,0,6.29,3.11,6.29,6.86ZM22.4,13.41h8.99c1.83,0,3.75-1.72,3.75-4.43s-1.99-4.33-3.68-4.33h-9.06v8.75Z"></path><path d="M40.41,18.44l-2.03,4.7h-3.14L44.77,2.09h2.37l9.56,21.06h-3.14l-2.06-4.7h-11.09ZM50.41,15.87l-4.46-10.27-4.43,10.27h8.89Z"></path><path d="M76.23,17.16c-1.72,3.65-5.48,6.22-9.73,6.22-5.95,0-10.82-4.83-10.82-10.78s4.87-10.78,10.82-10.78c4.26,0,8.01,2.57,9.73,6.22l-2.6,1.22c-1.25-2.7-3.96-4.56-7.13-4.56-4.39,0-7.94,3.55-7.94,7.91s3.55,7.91,7.94,7.91c3.18,0,5.88-1.86,7.13-4.56l2.6,1.22Z"></path><path d="M93.87,23.14h-16.29V2.09h16.29v2.57h-13.59v6.02h11.83v2.57h-11.83v7.33h13.59v2.57Z"></path><path d="M110.66,17.77c-.3-5.31-15.11-2.74-15.45-10.27-.1-2.13,1.12-5.41,6.29-5.41h10.95v2.57h-10.98c-1.62,0-3.62.68-3.41,2.81.44,4.8,15.24,1.93,15.45,10.27.03,2.13-1.12,5.41-6.29,5.41h-11.66v-2.57h11.46c1.66,0,3.79-.51,3.65-2.81Z"></path><path d="M2.21,43.17h11.11v2.1H0v-17.22h2.21v15.12Z"></path><path d="M27.74,45.27h-13.32v-17.22h13.32v2.1h-11.11v4.92h9.67v2.1h-9.67v6h11.11v2.1Z"></path><path d="M32.52,41.43l-1.66,3.84h-2.57l7.79-17.22h1.93l7.82,17.22h-2.57l-1.69-3.84h-9.06ZM40.7,39.33l-3.65-8.4-3.62,8.4h7.27Z"></path><path d="M54.82,38.25h-5.64v7.02h-2.24v-17.22h10.14c2.93,0,4.78,2.35,4.78,5.06,0,3.54-2.4,4.89-4.37,5.11l5.06,7.05h-2.71l-5.03-7.02ZM56.03,36.15h.8c1.52,0,2.74-1.24,2.74-3.04s-1.3-2.96-2.65-2.96h-7.74v6h4.12l-2.21-3.1h2.71l2.24,3.1Z"></path><path d="M74.68,45.27l-9.09-13.26v13.26h-2.21v-17.22h2.21l9.09,13.26v-13.26h2.21v17.22h-2.21Z"></path><path d="M78.55,28.05h2.21v17.22h-2.21v-17.22Z"></path><path d="M93.72,45.27l-9.09-13.26v13.26h-2.21v-17.22h2.21l9.09,13.26v-13.26h2.21v17.22h-2.21Z"></path><path d="M111.01,43.5c-1.44,1.16-3.18,1.96-5.14,1.96-4.86,0-8.84-3.95-8.84-8.82s3.98-8.82,8.84-8.82c3.48,0,6.55,2.1,7.96,5.08l-2.13,1c-1.02-2.21-3.23-3.73-5.83-3.73-3.59,0-6.49,2.9-6.49,6.47s2.9,6.47,6.49,6.47c1.52,0,2.9-.58,4.01-1.49l-2.43-3.92h-4.37v-2.1h5.69l5.36,8.68-1.91,1.19-1.22-1.96Z"></path><path d="M171.85,45.23h-5.58V1.79h33.6v5.3h-28.03v16.04h24.4v5.3h-24.4v16.8Z"></path><path d="M163.93,18.77c-.03-.16-.87-3.96-3.09-7.49-2.24-3.58-5.38-5.92-5.51-6.01l-.76-.56-7.13,7.04c-.27-.17-.54-.32-.82-.47l2.08-9.4-.88-.34c-.15-.06-3.79-1.44-7.96-1.52-4.21-.07-7.9,1.26-8.05,1.32l-.88.33,1.96,9.67c-.19.1-.37.21-.56.32l-6.67-6.55-.76.57c-.13.1-3.23,2.45-5.51,5.95-2.31,3.53-3.12,7.36-3.15,7.52l-.19.92,9.26,3.48c0,.18-.01.36-.01.54,0,.47.02.93.07,1.38l-9.46,4.34.26.91c.04.16,1.12,3.92,3.68,7.28,2.53,3.32,5.78,5.45,5.92,5.54l.8.51,6.04-6.83-1.67,7.5.88.34c.15.06,3.8,1.48,8.02,1.48s7.84-1.31,7.99-1.36l.89-.32-1.64-8.21c.19-.11.37-.22.55-.34l6.79,6.78.76-.56c.13-.1,3.25-2.42,5.56-5.9,2.34-3.51,3.18-7.34,3.22-7.5l.2-.92-9.82-3.79c0-.12,0-.23,0-.35,0-.22,0-.44-.02-.65l9.83-3.72-.2-.93ZM128.59,24.07c0-6.18,5.03-11.21,11.21-11.21s11.21,5.03,11.21,11.21-5.03,11.21-11.21,11.21-11.21-5.03-11.21-11.21ZM133.46,3.1c1.27-.37,3.72-.97,6.35-.9,2.62.05,5.06.69,6.32,1.07l-1.56,7.09c-1.49-.52-3.1-.81-4.76-.81s-3.35.3-4.87.84l-1.48-7.3ZM118.62,18.68c.36-1.27,1.17-3.66,2.6-5.86,1.43-2.19,3.26-3.93,4.26-4.79l5.01,4.92c-2.5,2.1-4.29,5.02-4.94,8.34l-6.94-2.61ZM126.17,41.13c-1.06-.79-3.01-2.39-4.59-4.48-1.59-2.1-2.56-4.42-3.01-5.66l7.18-3.3c.83,3.21,2.73,5.98,5.29,7.93l-4.86,5.5ZM146.15,43.38c-1.27.36-3.71.95-6.34.95s-5.07-.63-6.33-1.02l1.26-5.64c1.58.59,3.29.92,5.07.92s3.58-.34,5.19-.96l1.15,5.76ZM161.53,29.57c-.37,1.26-1.2,3.65-2.66,5.84-1.45,2.18-3.3,3.9-4.31,4.75l-5.19-5.19c2.4-2.11,4.1-5,4.7-8.28l7.46,2.88ZM154.02,21.17c-.66-3.22-2.38-6.05-4.79-8.11l5.51-5.44c1,.86,2.83,2.59,4.23,4.82,1.39,2.22,2.2,4.61,2.56,5.88l-7.51,2.85Z"></path></g></svg>