<svg xmlns="http://www.w3.org/2000/svg" id="Layer_2" viewBox="0 0 93.8 93.8"><defs><style>.cls-1{fill:#729d64;}.cls-2{fill:#ffd902;}</style></defs><g id="Layer_1-2"><circle class="cls-1" cx="46.9" cy="46.9" r="46.9"></circle><path class="cls-2" d="M86.31,37.83c-.06-.26-1.41-6.39-4.99-12.11-3.62-5.78-8.69-9.56-8.9-9.72l-1.22-.9-11.52,11.37c-.43-.27-.87-.52-1.32-.76l3.35-15.19-1.43-.55c-.25-.09-6.12-2.32-12.86-2.46-6.8-.11-12.76,2.04-13.01,2.13l-1.43.53,3.16,15.63c-.31.17-.61.34-.9.52l-10.78-10.58-1.22.92c-.21.16-5.21,3.96-8.9,9.61-3.73,5.71-5.04,11.9-5.09,12.16l-.31,1.49,14.96,5.62c-.01.29-.02.58-.02.87,0,.75.04,1.5.11,2.23l-15.29,7.02.41,1.46c.07.26,1.82,6.34,5.94,11.76,4.08,5.37,9.34,8.81,9.56,8.95l1.29.83,9.76-11.04-2.7,12.12,1.42.56c.25.1,6.14,2.39,12.96,2.39s12.66-2.11,12.91-2.2l1.44-.52-2.65-13.26c.3-.17.6-.36.89-.54l10.96,10.95,1.23-.91c.21-.16,5.25-3.91,8.99-9.53,3.78-5.67,5.14-11.85,5.2-12.11l.32-1.49-15.86-6.12c0-.19.01-.38.01-.57,0-.35-.01-.71-.03-1.06l15.87-6.02-.32-1.5ZM29.22,46.4c0-9.99,8.13-18.11,18.11-18.11s18.11,8.13,18.11,18.11-8.13,18.11-18.11,18.11-18.11-8.13-18.11-18.11ZM37.09,12.52c2.04-.59,6.01-1.56,10.26-1.45,4.23.08,8.18,1.11,10.22,1.74l-2.53,11.45c-2.41-.84-5-1.3-7.7-1.3s-5.4.48-7.86,1.36l-2.38-11.79ZM13.11,37.68c.58-2.05,1.88-5.91,4.21-9.47,2.31-3.54,5.27-6.35,6.89-7.74l8.1,7.95c-4.04,3.38-6.93,8.1-7.98,13.47l-11.21-4.21ZM25.31,73.96c-1.71-1.28-4.86-3.86-7.42-7.23-2.57-3.38-4.14-7.15-4.87-9.14l11.6-5.32c1.34,5.18,4.4,9.67,8.54,12.81l-7.85,8.89ZM57.59,77.59c-2.05.59-6,1.53-10.25,1.53s-8.2-1.02-10.23-1.65l2.03-9.11c2.55.96,5.31,1.48,8.2,1.48s5.78-.56,8.39-1.56l1.86,9.3ZM82.44,55.28c-.6,2.04-1.94,5.89-4.29,9.43-2.35,3.52-5.33,6.3-6.96,7.68l-8.39-8.38c3.88-3.41,6.63-8.08,7.59-13.37l12.05,4.65ZM70.31,41.71c-1.06-5.2-3.85-9.77-7.73-13.1l8.9-8.78c1.61,1.39,4.57,4.19,6.83,7.79,2.25,3.59,3.55,7.45,4.14,9.5l-12.13,4.6Z"></path></g></svg>