<svg xmlns="http://www.w3.org/2000/svg" id="Layer_2" viewBox="0 0 87.63 84.54"><g id="Layer_1-2"><path d="M87.27,34.1c-.06-.29-1.58-7.19-5.61-13.62-4.07-6.5-9.77-10.75-10.01-10.93l-1.38-1.02-12.95,12.79c-.49-.3-.98-.59-1.49-.86l3.77-17.08-1.61-.62c-.28-.11-6.88-2.61-14.47-2.76-7.65-.12-14.35,2.29-14.63,2.39l-1.6.59,3.55,17.57c-.34.19-.68.38-1.01.58l-12.12-11.89-1.38,1.04c-.24.18-5.86,4.45-10.01,10.8C2.14,27.52.67,34.48.61,34.77l-.35,1.67,16.83,6.32c-.01.32-.02.65-.02.97,0,.85.04,1.68.12,2.51L0,54.14l.46,1.65c.08.29,2.04,7.12,6.68,13.23,4.59,6.04,10.5,9.9,10.75,10.06l1.45.94,10.97-12.41-3.04,13.63,1.59.63c.28.11,6.91,2.68,14.58,2.68s14.24-2.37,14.52-2.47l1.62-.58-2.98-14.91c.34-.2.68-.4,1.01-.61l12.33,12.32,1.38-1.02c.24-.18,5.9-4.4,10.11-10.71,4.25-6.38,5.78-13.33,5.84-13.62l.36-1.67-17.83-6.88c0-.21.02-.42.02-.64,0-.4-.01-.79-.03-1.19l17.85-6.76-.36-1.68ZM23.07,43.74c0-11.23,9.14-20.37,20.37-20.37s20.37,9.14,20.37,20.37-9.14,20.37-20.37,20.37-20.37-9.14-20.37-20.37ZM31.91,5.64c2.3-.67,6.76-1.76,11.54-1.63,4.76.09,9.2,1.25,11.49,1.95l-2.84,12.88c-2.71-.95-5.62-1.47-8.66-1.47s-6.08.54-8.84,1.53l-2.68-13.26ZM4.95,33.93c.65-2.3,2.12-6.64,4.73-10.65,2.6-3.99,5.93-7.14,7.75-8.71l9.11,8.94c-4.55,3.81-7.79,9.11-8.97,15.15l-12.61-4.74ZM18.67,74.73c-1.92-1.44-5.47-4.34-8.34-8.13-2.89-3.81-4.66-8.04-5.48-10.28l13.05-5.99c1.5,5.82,4.95,10.87,9.61,14.41l-8.83,10ZM54.97,78.82c-2.3.66-6.75,1.72-11.53,1.72s-9.22-1.15-11.5-1.86l2.28-10.24c2.87,1.07,5.98,1.67,9.22,1.67s6.5-.62,9.43-1.75l2.09,10.46ZM82.92,53.72c-.68,2.29-2.18,6.62-4.83,10.6-2.64,3.96-6,7.08-7.82,8.64l-9.44-9.43c4.36-3.84,7.45-9.09,8.54-15.04l13.55,5.23ZM69.28,38.46c-1.19-5.85-4.33-10.99-8.7-14.74l10-9.88c1.81,1.56,5.14,4.71,7.68,8.76,2.53,4.03,3.99,8.38,4.66,10.68l-13.65,5.17Z"></path></g></svg>